<svg xmlns="http://www.w3.org/2000/svg" version="1.1" xmlns:xlink="http://www.w3.org/1999/xlink" xmlns:svgjs="http://svgjs.dev/svgjs" width="1000" height="358" viewBox="0 0 1000 358"><g transform="matrix(1,0,0,1,-0.6060606060606801,-0.4996831689437329)"><svg viewBox="0 0 396 142" data-background-color="#ffbe79" preserveAspectRatio="xMidYMid meet" height="358" width="1000" xmlns="http://www.w3.org/2000/svg" xmlns:xlink="http://www.w3.org/1999/xlink"><g id="tight-bounds" transform="matrix(1,0,0,1,0.24000000000003752,0.19819835192740243)"><svg viewBox="0 0 395.5199999999999 141.60360329614522" height="141.60360329614522" width="395.5199999999999"><g><svg viewBox="0 0 395.5199999999999 141.60360329614522" height="141.60360329614522" width="395.5199999999999"><g><svg viewBox="0 0 682.7332727191397 244.43135999999998" height="141.60360329614522" width="395.5199999999999"><g transform="matrix(1,0,0,1,287.21327271913975,85.97149362007167)"><svg viewBox="0 0 395.52 72.48837275985663" height="72.48837275985663" width="395.52"><g id="textblocktransform"><svg viewBox="0 0 395.52 72.48837275985663" height="72.48837275985663" width="395.52" id="textblock"><g><svg viewBox="0 0 395.52 72.48837275985663" height="72.48837275985663" width="395.52"><g transform="matrix(1,0,0,1,0,0)"><svg width="395.52" viewBox="-0.2199999988079071 -36.11000061035156 204.3300018310547 37.45000076293945" height="72.48837275985663" data-palette-color="#374151"><path d="M47.14-33.74L47.14-33.74Q47.14-33.37 46.97-32.84L46.97-32.84Q46.39-31.25 45.92-30.08L45.92-30.08 32.98 1.34 23.78-19.21 14.23 1.34-0.22-34.55 13.16-34.55 20.02-16.26 29.32-36.11 37.99-16.31 44.09-30.64Q44.41-31.45 44.63-32.23L44.63-32.23 45.04-33.72Q45.31-34.81 46.23-34.81 47.14-34.81 47.14-33.74ZM73.65-2.1L73.65-2.1Q74.9-2.1 74.9-1.12L74.9-1.12Q74.9-0.68 74.36-0.34 73.83 0 72.51 0L72.51 0 51.83 0 51.83-34.55Q61.45-34.55 71.07-34.55L71.07-34.55 73.07-34.62Q74.9-34.62 74.9-33.54L74.9-33.54Q74.9-33.13 74.59-32.78 74.29-32.42 73.9-32.42L73.9-32.42Q73.26-32.42 72.56-32.57L72.56-32.57Q71.51-32.79 69.68-32.79L69.68-32.79 64.28-32.79 64.28-25.34 68.72-25.34Q68.72-25.34 71.73-25.46L71.73-25.46Q72.26-25.46 72.64-25.21 73.02-24.95 73.02-24.49L73.02-24.49Q73.02-23.46 71.65-23.46L71.65-23.46 70.6-23.49Q69.8-23.56 69.26-23.56L69.26-23.56 64.28-23.56 64.28-1.78 69.68-1.78Q71.48-1.78 72.24-1.93L72.24-1.93Q73.14-2.1 73.65-2.1ZM81.44 0L81.44-34.55Q88.03-34.55 91.93-34.55 95.82-34.55 96.65-34.52L96.65-34.52Q100.26-34.35 101.75-33.68 103.24-33.01 104.12-32.18L104.12-32.18Q106-30.32 106-27.69L106-27.69Q106-25.07 104.17-23.1L104.17-23.1Q103.61-22.49 102.88-22.05L102.88-22.05Q106.86-21.31 109.39-18.7L109.39-18.7Q112.15-15.87 112.15-11.79L112.15-11.79Q112.15-7.64 109.59-4.64L109.59-4.64Q106-0.49 98.51-0.1L98.51-0.1Q96.6 0 94.75 0L94.75 0 81.44 0ZM97.46-22.53L97.46-22.53 98.7-22.39 99.09-22.39Q101.02-22.39 102.44-23.8L102.44-23.8Q103.95-25.32 103.95-27.51L103.95-27.51Q103.95-30.2 101.63-31.64L101.63-31.64Q100.46-32.37 99.3-32.51 98.14-32.64 97.48-32.69L97.48-32.69Q96.11-32.79 93.89-32.79L93.89-32.79 93.89-1.81 96.6-1.81Q100.75-1.81 103.36-2.83L103.36-2.83Q106.49-3.91 108.32-6.3L108.32-6.3Q110.05-8.57 110.05-11.06 110.05-13.55 109.32-15.26 108.59-16.97 107.2-18.16L107.2-18.16Q104.37-20.63 99.31-20.63L99.31-20.63 97.63-20.48Q96.85-20.48 96.48-20.8 96.11-21.12 96.11-21.53L96.11-21.53Q96.11-22.53 97.46-22.53ZM134.68-20.29L138.71-20.12Q139.3-20.12 139.83-20.17L139.83-20.17 139.83-33.15 139.3-33.2Q139.03-33.23 138.78-33.23 138.54-33.23 137.75-33.23 136.95-33.23 135.78-33.07 134.61-32.91 133.66-32.62L133.66-32.62Q131.75-32.08 130.97-31.18L130.97-31.18Q130.24-30.32 129.58-30.27L129.58-30.27Q128.26-30.18 128.21-31.13L128.21-31.13Q128.12-32.59 132.31-34.03L132.31-34.03Q135.27-34.99 138.87-34.99 142.47-34.99 144.9-34.35 147.33-33.72 148.92-32.62L148.92-32.62Q152.07-30.47 152.07-26.76L152.07-26.76Q152.07-23.12 148.38-20.65L148.38-20.65Q147.11-19.8 145.4-19.24L145.4-19.24Q151.02-17.43 152.77-13.01L152.77-13.01Q153.33-11.55 153.33-9.57 153.33-7.59 152.32-5.69 151.31-3.78 149.4-2.42L149.4-2.42Q145.4 0.46 138.49 0.46L138.49 0.46Q132.56 0.46 128.24-2.83L128.24-2.83Q126.72-3.98 126.21-5.32L126.21-5.32Q126.06-5.71 126.09-6.01L126.09-6.01Q126.16-7.03 127.02-6.96L127.02-6.96Q127.9-6.84 128.38-5.87 128.87-4.91 129.73-4.14 130.58-3.37 131.78-2.73L131.78-2.73Q134.44-1.34 137.59-1.34L137.59-1.34 139.83-1.34 139.83-18.21Q138.95-18.31 138.22-18.31L138.22-18.31 137.29-18.31 134.76-18.16Q133.07-18.16 133.07-19.12L133.07-19.12Q133.07-20.29 134.68-20.29L134.68-20.29ZM141.62-32.86L142.74-32.57Q142.23-32.74 141.62-32.86L141.62-32.86ZM159.36-2.66L159.36-2.66Q159-3.64 159-4.71 159-5.79 159.42-6.68 159.85-7.57 160.63-8.25L160.63-8.25Q162.29-9.74 164.78-9.74L164.78-9.74Q167.35-9.74 168.93-8.06L168.93-8.06Q170.4-6.52 170.4-4.44L170.4-4.44Q170.4-2.37 168.74-0.98L168.74-0.98Q167.03 0.46 164.64 0.46L164.64 0.46Q160.58 0.46 159.36-2.66ZM189.71 0.46L189.71 0.46Q186.36 0.46 183.74-0.68 181.11-1.83 179.28-4.13L179.28-4.13Q175.5-8.86 175.5-17.97L175.5-17.97Q175.5-26.07 179.31-30.52L179.31-30.52Q183.11-34.99 190.12-34.99L190.12-34.99Q196.86-34.99 200.52-30.47L200.52-30.47Q204.11-26 204.11-17.63L204.11-17.63Q204.11-8.79 200.25-4.08L200.25-4.08Q196.49 0.46 189.71 0.46ZM189.8-1.22L189.88-1.22Q198.54-1.22 201.25-10.11L201.25-10.11Q202.21-13.21 202.21-17.55 202.21-21.9 201.3-24.9 200.4-27.91 198.79-29.79L198.79-29.79Q195.69-33.4 190.07-33.4L190.07-33.4 189.8-33.4 189.8-1.22Z" opacity="1" transform="matrix(1,0,0,1,0,0)" fill="#f2633f" class="wordmark-text-0" data-fill-palette-color="primary" id="text-0"></path></svg></g></svg></g></svg></g></svg></g><g><svg viewBox="0 0 244.43135999999998 244.43135999999998" height="244.43135999999998" width="244.43135999999998"><g><svg viewBox="0 0 244.43135999999998 244.43135999999998" height="244.43135999999998" width="244.43135999999998"><g transform="matrix(1,0,0,1,64.60265593644992,64.60265593644992)"><svg viewBox="0 0 115.22604812710014 115.22604812710014" height="115.22604812710014" width="115.22604812710014"><g><svg xmlns="http://www.w3.org/2000/svg" xmlns:xlink="http://www.w3.org/1999/xlink" version="1.1" x="0" y="0" viewBox="22.48999786376953 23.4949951171875 54.720001220703125 54.720001220703125" style="enable-background:new 0 0 100 100;" xml:space="preserve" height="115.22604812710014" width="115.22604812710014" class="icon-s-0" data-fill-palette-color="accent" id="s-0"><g fill="#f2633f" data-fill-palette-color="accent"><path d="M49.85 78.215c-15.087 0-27.36-12.274-27.36-27.36s12.273-27.36 27.36-27.36 27.36 12.274 27.36 27.36S64.937 78.215 49.85 78.215zM49.85 25.494c-13.983 0-25.36 11.376-25.36 25.36s11.377 25.36 25.36 25.36 25.36-11.376 25.36-25.36S63.834 25.494 49.85 25.494z" fill="#f2633f" data-fill-palette-color="accent"></path><g fill="#f2633f" data-fill-palette-color="accent"><path d="M49.494 66.314c-6.172 0-11.928-0.256-16.207-0.722-6.862-0.747-7.788-1.76-7.788-2.654 0-0.276 0.224-0.5 0.5-0.5 0.274 0 0.498 0.222 0.5 0.496 0.274 0.96 7.765 2.38 22.995 2.38 15.244 0 22.734-1.422 22.997-2.382 0-0.276 0.224-0.497 0.499-0.497 0.276 0 0.5 0.227 0.5 0.503C73.49 66.071 55.124 66.314 49.494 66.314z" fill="#f2633f" data-fill-palette-color="accent"></path><path d="M75.974 51.355H23.016c-0.276 0-0.5-0.224-0.5-0.5s0.224-0.5 0.5-0.5h52.958c0.276 0 0.5 0.224 0.5 0.5S76.25 51.355 75.974 51.355z" fill="#f2633f" data-fill-palette-color="accent"></path><path d="M25.995 39.291c-0.276 0-0.496-0.244-0.496-0.52 0-2.788 16.781-3.089 23.995-3.089 7.215 0 23.996 0.301 23.996 3.089 0 0.276-0.224 0.5-0.5 0.5s-0.5-0.224-0.5-0.5c-0.445-0.844-7.881-2.089-22.996-2.089-15.114 0-22.55 1.246-23.003 2.13C26.491 39.088 26.271 39.291 25.995 39.291z" fill="#f2633f" data-fill-palette-color="accent"></path></g><g fill="#f2633f" data-fill-palette-color="accent"><path d="M37.411 74.85c-4.002 0-4.204-19.989-4.204-23.996 0-6.178 0.33-11.939 0.931-16.223 0.977-6.967 2.336-7.773 3.273-7.773 0.276 0 0.5 0.224 0.5 0.5s-0.224 0.5-0.5 0.5c-0.135 0-1.342 0.194-2.283 6.912-0.594 4.239-0.921 9.951-0.921 16.084 0 14.204 1.663 22.996 3.204 22.996 0.276 0 0.5 0.224 0.5 0.5S37.687 74.85 37.411 74.85z" fill="#f2633f" data-fill-palette-color="accent"></path><path d="M49.494 77.834c-0.276 0-0.5-0.224-0.5-0.5V24.376c0-0.276 0.224-0.5 0.5-0.5s0.5 0.224 0.5 0.5v52.958C49.994 77.61 49.77 77.834 49.494 77.834z" fill="#f2633f" data-fill-palette-color="accent"></path><path d="M61.578 74.85c-0.276 0-0.5-0.224-0.5-0.5s0.224-0.5 0.5-0.5c0.657 0 1.695-1.811 2.454-6.916 0.631-4.238 0.978-9.948 0.978-16.08 0-14.204-1.781-22.996-3.432-22.996-0.276 0-0.5-0.224-0.5-0.5s0.224-0.5 0.5-0.5c4.218 0 4.432 19.989 4.432 23.996 0 6.179-0.351 11.942-0.988 16.227C63.985 74.045 62.56 74.85 61.578 74.85z" fill="#f2633f" data-fill-palette-color="accent"></path></g></g></svg></g></svg></g><g><path d="M10.965 64.897v0c0.133 0.053 0.283 0.146 0.45 0.278v0c0.484 0.442 0.906 0.83 1.265 1.163v0l14.156 13.704-13.048 0.555 9.029 9.553-22.435 0.089 2.863-7.2 11.334 0.216-8.706-9.26 12.527-0.432-6.417-6.357c-0.246-0.23-0.492-0.441-0.738-0.635v0l-0.72-0.539c-0.355-0.251-0.467-0.541-0.336-0.871 0.131-0.329 0.39-0.417 0.776-0.264z" fill="#f2633f" data-fill-palette-color="accent"></path><path d="M55.21 39.432v0c0.35-0.324 0.652-0.349 0.907-0.075v0c0.116 0.125 0.145 0.307 0.088 0.546-0.067 0.239-0.285 0.529-0.655 0.873v0l-8.792 8.154-13.626-14.691c2.723-2.526 5.449-5.054 8.178-7.584v0l0.819-0.816c0.52-0.482 0.921-0.571 1.204-0.265v0c0.111 0.12 0.171 0.269 0.178 0.447 0.008 0.179-0.043 0.319-0.153 0.422v0c-0.18 0.167-0.391 0.325-0.633 0.475v0c-0.355 0.208-0.792 0.554-1.312 1.036v0l-2.294 2.127 2.934 3.163 1.889-1.752c0 0 0.411-0.409 1.232-1.227v0c0.155-0.144 0.317-0.229 0.488-0.256 0.179-0.027 0.329 0.024 0.449 0.154v0c0.269 0.29 0.208 0.615-0.181 0.977v0l-0.449 0.403c-0.248 0.193-0.45 0.362-0.605 0.505v0l-2.114 1.96 8.586 9.257 2.293-2.127c0.51-0.473 0.853-0.829 1.032-1.068v0c0.213-0.291 0.393-0.504 0.537-0.638z" fill="#f2633f" data-fill-palette-color="accent"></path><path d="M83.072 25.026l-6.248-19.038c2.422-0.795 4.348-1.427 5.779-1.897 1.431-0.47 2.301-0.748 2.609-0.835v0c1.347-0.377 2.333-0.529 2.961-0.455 0.631 0.065 1.159 0.197 1.582 0.395v0c0.91 0.455 1.524 1.168 1.842 2.139v0c0.315 0.958 0.254 1.911-0.181 2.857v0c-0.126 0.293-0.3 0.561-0.521 0.806v0c1.553-0.208 2.953 0.014 4.2 0.666v0c1.352 0.711 2.274 1.814 2.765 3.31v0c0.502 1.528 0.464 2.997-0.114 4.406v0c-0.822 1.955-2.585 3.456-5.29 4.501v0c-0.687 0.268-1.37 0.514-2.05 0.738v0zM87.827 9.714v0l0.706-0.145 0.213-0.07c0.712-0.234 1.242-0.695 1.591-1.383v0c0.374-0.74 0.428-1.514 0.162-2.324v0c-0.323-0.984-0.999-1.602-2.028-1.852v0c-0.515-0.125-0.994-0.144-1.438-0.055-0.444 0.088-0.788 0.166-1.033 0.231v0c-0.518 0.127-1.185 0.324-2 0.592v0l5.605 17.076 1.495-0.491c1.528-0.502 2.709-1.101 3.542-1.797v0c1.016-0.771 1.718-1.704 2.105-2.8v0c0.36-1.044 0.391-2.022 0.091-2.935-0.302-0.92-0.689-1.65-1.16-2.191-0.476-0.532-1.042-0.935-1.699-1.207v0c-1.334-0.566-2.93-0.545-4.788 0.065v0l-0.907 0.384c-0.285 0.094-0.514 0.104-0.688 0.033-0.174-0.072-0.286-0.182-0.335-0.332v0c-0.121-0.369 0.068-0.635 0.566-0.799z" fill="#f2633f" data-fill-palette-color="accent"></path><path d="M170.717 16.322l2.062 1.091c0.203 0.096 0.405 0.181 0.604 0.253v0l3.231-6.807-0.278-0.154c-0.087-0.056-0.173-0.105-0.259-0.145-0.086-0.041-0.268-0.127-0.545-0.259-0.277-0.132-0.632-0.266-1.064-0.404-0.439-0.14-0.849-0.237-1.232-0.29v0c-0.753-0.131-1.339-0.104-1.759 0.082v0c-0.396 0.182-0.715 0.227-0.957 0.134v0c-0.476-0.188-0.642-0.452-0.497-0.79v0c0.206-0.529 1.161-0.698 2.866-0.507v0c1.192 0.158 2.416 0.536 3.673 1.132 1.256 0.596 2.256 1.207 3.001 1.831 0.744 0.625 1.302 1.263 1.671 1.914v0c0.746 1.274 0.812 2.558 0.198 3.851v0c-0.605 1.275-1.757 2.033-3.456 2.275v0c-0.586 0.091-1.222 0.095-1.906 0.012v0c1.66 1.557 2.431 3.255 2.313 5.092v0c-0.046 0.605-0.232 1.252-0.559 1.941-0.327 0.69-0.827 1.282-1.5 1.778-0.667 0.498-1.446 0.83-2.34 0.995v0c-1.874 0.34-4.018-0.062-6.431-1.208v0c-2.075-0.985-3.593-2.411-4.555-4.278v0c-0.34-0.652-0.488-1.254-0.444-1.807v0c0.015-0.159 0.05-0.289 0.106-0.391v0c0.194-0.345 0.436-0.434 0.726-0.266v0c0.287 0.189 0.434 0.493 0.439 0.91 0.012 0.42 0.102 0.833 0.273 1.238 0.173 0.414 0.416 0.831 0.73 1.252v0c0.699 0.928 1.596 1.652 2.692 2.172v0l1.182 0.561 4.195-8.839c-0.29-0.183-0.565-0.336-0.824-0.458v0l-0.48-0.228-1.369-0.548c-0.591-0.281-0.808-0.587-0.65-0.92v0c0.196-0.413 0.577-0.484 1.143-0.215zM177.472 11.459l0.517 0.438c-0.155-0.149-0.328-0.295-0.517-0.438z" fill="#f2633f" data-fill-palette-color="accent"></path><path d="M200.419 49.444v0c0.179-0.359 0.421-0.68 0.727-0.961 0.306-0.282 0.644-0.477 1.016-0.587 0.361-0.11 0.742-0.145 1.14-0.105v0c0.86 0.079 1.618 0.474 2.273 1.186v0c0.669 0.727 0.971 1.538 0.905 2.433v0c-0.053 0.818-0.375 1.499-0.967 2.043v0c-0.592 0.545-1.303 0.764-2.132 0.657v0c-0.854-0.112-1.595-0.51-2.223-1.191v0c-1.062-1.153-1.308-2.311-0.739-3.475z" fill="#f2633f" data-fill-palette-color="accent"></path><path d="M221.949 88.376v0c-0.447-1.215-0.638-2.376-0.573-3.482 0.065-1.106 0.392-2.141 0.98-3.106v0c1.214-2.008 3.472-3.62 6.772-4.835v0c2.942-1.083 5.473-1.23 7.594-0.442v0c2.133 0.784 3.667 2.445 4.601 4.984v0c0.902 2.45 0.774 4.639-0.382 6.568v0c-1.138 1.9-3.226 3.41-6.264 4.528v0c-3.204 1.179-5.921 1.384-8.151 0.614v0c-2.145-0.757-3.671-2.367-4.577-4.829zM222.878 88.088l0.018 0.048c1.156 3.14 3.527 4.61 7.113 4.408v0c1.253-0.069 2.669-0.394 4.249-0.975 1.573-0.579 2.847-1.233 3.82-1.962 0.965-0.733 1.682-1.516 2.153-2.35v0c0.897-1.608 0.971-3.429 0.222-5.464v0l-0.057-0.153z" fill="#f2633f" data-fill-palette-color="accent"></path><path d="M32.228 174.577v0c-0.127 0.05-0.297 0.084-0.509 0.102v0c-0.64 0.011-1.198 0.018-1.673 0.022v0l-19.227-0.297 8.914-9.109-12.807-0.763 15.897-15.06 2.779 7.048-8.213 7.403 12.387 0.786-8.627 8.665 8.819 0.237c0.324 0.004 0.637-0.01 0.94-0.041v0l0.875-0.092c0.424-0.057 0.7 0.076 0.828 0.399 0.125 0.317-0.003 0.551-0.383 0.7z" fill="#f2633f" data-fill-palette-color="accent"></path><path d="M45.897 218.378v0c0.344 0.321 0.39 0.616 0.139 0.885v0c-0.112 0.12-0.286 0.157-0.524 0.112-0.238-0.045-0.539-0.237-0.903-0.576v0l-8.558-7.986 13.342-14.299c2.656 2.478 5.312 4.956 7.968 7.435v0l0.85 0.737c0.508 0.474 0.623 0.861 0.344 1.16v0c-0.107 0.115-0.247 0.18-0.42 0.195-0.178 0.021-0.321-0.02-0.431-0.122v0c-0.174-0.163-0.34-0.355-0.498-0.576v0c-0.233-0.329-0.604-0.731-1.112-1.206v0l-2.227-2.078-2.874 3.08 1.839 1.715c0 0 0.43 0.368 1.29 1.106v0c0.149 0.139 0.244 0.293 0.283 0.46 0.04 0.167-0.001 0.316-0.122 0.445v0c-0.265 0.284-0.587 0.249-0.966-0.104v0l-0.426-0.412c-0.201-0.234-0.376-0.421-0.526-0.56v0l-2.055-1.918-8.411 9.014 2.227 2.079c0.503 0.47 0.876 0.78 1.117 0.93v0c0.291 0.188 0.509 0.349 0.654 0.484z" fill="#f2633f" data-fill-palette-color="accent"></path><path d="M78.064 238.195l6.152-18.564c2.361 0.783 4.241 1.405 5.638 1.869 1.391 0.461 2.233 0.747 2.526 0.858v0c1.281 0.489 2.147 0.941 2.598 1.357 0.451 0.415 0.786 0.824 1.005 1.227v0c0.452 0.889 0.521 1.806 0.208 2.75v0c-0.311 0.938-0.91 1.651-1.797 2.14v0c-0.273 0.153-0.569 0.264-0.885 0.332v0c1.342 0.739 2.31 1.728 2.905 2.966v0c0.655 1.337 0.741 2.737 0.256 4.199v0c-0.493 1.488-1.377 2.617-2.651 3.386v0c-1.78 1.061-4.037 1.218-6.769 0.471v0c-0.69-0.193-1.368-0.4-2.034-0.621v0zM90.685 228.937v0l0.643 0.299 0.214 0.071c0.686 0.227 1.368 0.173 2.046-0.162v0c0.724-0.363 1.215-0.936 1.474-1.719v0c0.319-0.964 0.148-1.843-0.515-2.637v0c-0.333-0.405-0.698-0.698-1.097-0.881-0.399-0.182-0.715-0.323-0.948-0.421v0c-0.474-0.193-1.11-0.422-1.906-0.686v0l-5.515 16.643 1.456 0.482c1.488 0.493 2.759 0.71 3.812 0.65v0c1.246-0.011 2.341-0.337 3.286-0.979v0c0.889-0.603 1.482-1.351 1.778-2.244 0.296-0.893 0.413-1.69 0.351-2.393-0.062-0.702-0.271-1.35-0.627-1.941v0c-0.718-1.214-1.982-2.122-3.794-2.722v0l-0.928-0.222c-0.285-0.094-0.472-0.221-0.563-0.38-0.093-0.153-0.115-0.304-0.066-0.453v0c0.12-0.362 0.419-0.464 0.899-0.305z" fill="#f2633f" data-fill-palette-color="accent"></path><path d="M167.411 225.238l2.099-0.894c0.203-0.096 0.393-0.198 0.569-0.304v0l-3.151-6.641-0.285 0.113c-0.098 0.032-0.19 0.068-0.277 0.108-0.08 0.038-0.256 0.121-0.527 0.25-0.271 0.129-0.593 0.315-0.967 0.561-0.374 0.245-0.698 0.493-0.971 0.743v0c-0.565 0.494-0.907 0.958-1.026 1.392v0c-0.115 0.409-0.279 0.676-0.492 0.799v0c-0.435 0.244-0.739 0.207-0.912-0.11v0c-0.267-0.484 0.198-1.308 1.395-2.472v0c0.855-0.805 1.895-1.499 3.121-2.08 1.232-0.584 2.311-0.964 3.238-1.141 0.934-0.179 1.757-0.208 2.471-0.086v0c1.425 0.222 2.437 0.963 3.037 2.226v0c0.59 1.244 0.456 2.582-0.404 4.016v0c-0.297 0.503-0.69 0.987-1.178 1.452v0c2.207-0.293 3.966 0.17 5.276 1.39v0c0.43 0.414 0.805 0.957 1.123 1.628 0.321 0.677 0.463 1.421 0.425 2.232-0.038 0.81-0.269 1.603-0.694 2.377v0c-0.9 1.634-2.529 3.01-4.887 4.129v0c-2.02 0.958-4.036 1.224-6.048 0.798v0c-0.695-0.145-1.241-0.407-1.639-0.784v0c-0.111-0.106-0.185-0.214-0.222-0.324v0c-0.139-0.357-0.058-0.591 0.243-0.704v0c0.319-0.106 0.641-0.032 0.965 0.221 0.321 0.247 0.689 0.435 1.104 0.562 0.412 0.121 0.877 0.195 1.395 0.221v0c1.13 0.045 2.231-0.187 3.302-0.695v0l1.155-0.548-4.093-8.627c-0.319 0.106-0.605 0.219-0.857 0.339v0l-0.471 0.224-1.267 0.692c-0.573 0.272-0.935 0.247-1.087-0.073v0c-0.19-0.4-0.011-0.73 0.537-0.991zM167.904 217.117l0.647-0.114c-0.202 0.02-0.417 0.058-0.647 0.114z" fill="#f2633f" data-fill-palette-color="accent"></path><path d="M209.673 207.432v0c-0.363-0.149-0.695-0.361-0.996-0.638-0.296-0.272-0.514-0.584-0.655-0.934-0.14-0.341-0.204-0.71-0.192-1.106v0c0.013-0.84 0.337-1.606 0.973-2.299v0c0.65-0.708 1.411-1.068 2.284-1.081v0c0.8-0.015 1.489 0.243 2.066 0.773v0c0.577 0.53 0.849 1.201 0.816 2.013v0c-0.036 0.846-0.361 1.602-0.974 2.27v0c-1.033 1.124-2.14 1.458-3.322 1.002z" fill="#f2633f" data-fill-palette-color="accent"></path><path d="M237.05 165.517v0c-0.433 1.184-1.025 2.169-1.776 2.954-0.743 0.781-1.64 1.349-2.692 1.705v0c-2.173 0.722-4.872 0.494-8.097-0.686v0c-2.874-1.051-4.852-2.539-5.933-4.465v0c-1.087-1.929-1.177-4.135-0.269-6.618v0c0.873-2.388 2.347-3.939 4.422-4.653v0c2.044-0.689 4.552-0.491 7.522 0.594v0c3.13 1.144 5.281 2.703 6.453 4.678v0c1.126 1.921 1.25 4.085 0.37 6.491zM236.165 165.139l0.014-0.038c1.123-3.073 0.286-5.664-2.513-7.776v0c-0.971-0.739-2.227-1.391-3.77-1.955-1.543-0.564-2.904-0.88-4.083-0.948-1.18-0.068-2.206 0.061-3.08 0.387v0c-1.683 0.633-2.888 1.945-3.616 3.935v0l-0.052 0.144z" fill="#f2633f" data-fill-palette-color="accent"></path><path d="M0 124.299c0-4.417 3.581-7.998 7.998-7.998 4.417 0 7.998 3.581 7.998 7.998 0 4.417-3.581 7.998-7.998 7.998-4.417 0-7.998-3.581-7.998-7.998z" fill="#f2633f" data-fill-palette-color="accent"></path><path d="M228.436 124.299c0-4.417 3.581-7.998 7.998-7.998 4.417 0 7.998 3.581 7.997 7.998 0 4.417-3.581 7.998-7.997 7.998-4.417 0-7.998-3.581-7.998-7.998z" fill="#f2633f" data-fill-palette-color="accent"></path></g></svg></g></svg></g></svg></g></svg></g><defs></defs></svg><rect width="395.5199999999999" height="141.60360329614522" fill="none" stroke="none" visibility="hidden"></rect></g></svg></g></svg>